<svg width="463" height="463" xmlns="http://www.w3.org/2000/svg" xmlns:xlink="http://www.w3.org/1999/xlink" overflow="hidden"><defs><clipPath id="clip0"><rect x="91" y="350" width="463" height="463"/></clipPath></defs><g clip-path="url(#clip0)" transform="translate(-91 -350)"><path d="M505.45 646.269C508.451 651.458 506.674 658.098 501.486 661.096 496.297 664.095 489.659 662.321 486.661 657.132 486.659 657.128 486.657 657.125 486.655 657.123L451.469 596.18C430.448 610.767 407.046 621.582 382.316 628.144L393.406 691.036C394.446 696.939 390.505 702.567 384.603 703.609 383.978 703.718 383.343 703.774 382.706 703.774 377.445 703.766 372.945 699.986 372.032 694.805L361.076 632.672C335.468 636.794 309.366 636.787 283.764 632.647L272.807 694.783C271.894 699.965 267.395 703.745 262.133 703.752 261.497 703.75 260.862 703.696 260.236 703.586 254.334 702.544 250.393 696.915 251.433 691.014L262.525 628.102C237.821 621.528 214.449 610.709 193.453 596.126L158.072 657.408C155.072 662.597 148.435 664.372 143.246 661.373 138.061 658.374 136.284 651.744 139.276 646.557L176.056 582.853C163.032 571.916 151.102 559.739 140.433 546.496 136.671 541.83 137.405 534.999 142.07 531.237 146.729 527.482 153.549 528.206 157.314 532.858 168.793 547.139 181.892 560.041 196.347 571.3 196.567 571.453 196.775 571.618 196.98 571.786 232.868 599.606 277.095 614.498 322.5 614.055 367.896 614.498 412.112 599.611 447.997 571.802 448.186 571.65 448.378 571.498 448.581 571.357 463.064 560.083 476.187 547.164 487.684 532.856 491.446 528.191 498.277 527.458 502.943 531.219 507.608 534.981 508.342 541.812 504.58 546.478 504.575 546.484 504.571 546.489 504.566 546.495 493.877 559.764 481.922 571.96 468.869 582.913Z" fill="#91A3AD"/></g></svg>