<svg width="381" height="381" xmlns="http://www.w3.org/2000/svg" xmlns:xlink="http://www.w3.org/1999/xlink" overflow="hidden"><defs><clipPath id="clip0"><rect x="630" y="350" width="381" height="381"/></clipPath></defs><g clip-path="url(#clip0)" transform="translate(-630 -350)"><path d="M645.878 540.498C645.878 540.498 709.378 413.498 820.504 413.498 931.628 413.498 995.128 540.498 995.128 540.498 995.128 540.498 931.628 667.499 820.504 667.499 709.378 667.499 645.878 540.498 645.878 540.498Z" stroke="#ED1164" stroke-width="19.05" stroke-linecap="round" stroke-linejoin="round" fill="none"/><path d="M820.5 588.125C846.802 588.125 868.125 566.802 868.125 540.5 868.125 514.198 846.802 492.875 820.5 492.875 794.198 492.875 772.875 514.198 772.875 540.5 772.875 566.802 794.198 588.125 820.5 588.125Z" stroke="#ED1164" stroke-width="19.05" stroke-linecap="round" stroke-linejoin="round" fill="none"/></g></svg>