<svg width="24" height="24" viewBox="0 0 24 24" xmlns="http://www.w3.org/2000/svg" xmlns:xlink="http://www.w3.org/1999/xlink" overflow="hidden"><defs><clipPath id="clip0"><rect x="627" y="374" width="26" height="26"/></clipPath></defs><g clip-path="url(#clip0)" transform="translate(-627 -374)"><path d="M15.1642 5.05475C17.6069 5.05475 19.5871 7.03494 19.5871 9.47765 19.5871 11.9204 17.6069 13.9006 15.1642 13.9006 12.7215 13.9006 10.7413 11.9204 10.7413 9.47765 10.7438 7.03595 12.7225 5.05718 15.1642 5.05475M15.1642 4.4229C12.3726 4.4229 10.1095 6.68598 10.1095 9.47765 10.1095 12.2693 12.3726 14.5324 15.1642 14.5324 17.9559 14.5324 20.219 12.2693 20.219 9.47765 20.219 6.68598 17.9559 4.4229 15.1642 4.4229Z" stroke="#ED1164" stroke-width="0.673966" fill="#ED1164" transform="matrix(1 0 0 1.00001 624.836 371.172)"/><path d="M25.2737 25.9056 24.6419 25.9056 24.6419 21.0088C24.6269 20.3377 24.3107 19.7091 23.781 19.2968 22.3955 18.2337 20.8091 17.462 19.1174 17.0282 17.8365 16.634 16.5043 16.4317 15.1642 16.4279 13.8245 16.4512 12.4939 16.6531 11.2076 17.0282 9.5336 17.5185 7.95421 18.2875 6.53579 19.3028 6.01142 19.7155 5.69976 20.3416 5.68659 21.0088L5.68659 25.9056 5.05475 25.9056 5.05475 21.0088C5.07042 20.1459 5.47375 19.3359 6.15289 18.8033 7.63504 17.7394 9.28649 16.9338 11.0374 16.4207 12.379 16.0297 13.7669 15.8197 15.1642 15.7961 16.5644 15.7995 17.9564 16.0102 19.2949 16.4213 21.0671 16.8779 22.7283 17.6889 24.1784 18.8052 24.8562 19.3378 25.2584 20.147 25.2737 21.0088Z" stroke="#ED1164" stroke-width="0.673966" fill="#ED1164" transform="matrix(1 0 0 1.00001 624.836 371.172)"/></g></svg>